HIERARCHY
ROOT root
{
	OFFSET 0.00 0.00 0.00
	CHANNELS 6 Xposition Yposition Zposition Zrotation Xrotation Yrotation
	JOINT lowerback
	{
		OFFSET 0 0 0
		CHANNELS 6 Xposition Yposition Zposition Zrotation Xrotation Yrotation
		JOINT upperback
		{
			OFFSET -0.214371 12.3768 -1.12219
			CHANNELS 6 Xposition Yposition Zposition Zrotation Xrotation Yrotation
			JOINT thorax
			{
				OFFSET -0.00137213 12.3873 0.296195
				CHANNELS 6 Xposition Yposition Zposition Zrotation Xrotation Yrotation
				JOINT lowerneck
				{
					OFFSET 0.0883157 12.5016 0.82912
					CHANNELS 6 Xposition Yposition Zposition Zrotation Xrotation Yrotation
					JOINT upperneck
					{
						OFFSET -1 10.1794 0.943522
						CHANNELS 6 Xposition Yposition Zposition Zrotation Xrotation Yrotation
						JOINT head
						{
							OFFSET 0.667525 10.2797 -1.57149
							CHANNELS 6 Xposition Yposition Zposition Zrotation Xrotation Yrotation
							End Site
							{
								OFFSET 0 0 0
							}
						}
					}
				}
				JOINT lclavicle
				{
					OFFSET 0.0883157 12.5016 0.82912
					CHANNELS 6 Xposition Yposition Zposition Zrotation Xrotation Yrotation
					JOINT lhumerus
					{
						OFFSET 20.61 4.45006 1.43784
						CHANNELS 6 Xposition Yposition Zposition Zrotation Xrotation Yrotation
						JOINT lradius
						{
							OFFSET 0 -30.3438 0
							CHANNELS 6 Xposition Yposition Zposition Zrotation Xrotation Yrotation
							JOINT lwrist
							{
								OFFSET 0 -18.964 0
								CHANNELS 6 Xposition Yposition Zposition Zrotation Xrotation Yrotation
								JOINT lhand
								{
									OFFSET 0 -9.48199 0
									CHANNELS 6 Xposition Yposition Zposition Zrotation Xrotation Yrotation
									JOINT lfingers
									{
										OFFSET 0 -3.17138 0
										CHANNELS 6 Xposition Yposition Zposition Zrotation Xrotation Yrotation
										End Site
										{
											OFFSET 0 -2.55685 0
										}
									}
								}
								JOINT lthumb
								{
									OFFSET 0 -9.48199 0
									CHANNELS 6 Xposition Yposition Zposition Zrotation Xrotation Yrotation
									End Site
									{
										OFFSET 0 -3.67114 0
									}
								}
							}
						}
					}
				}
				JOINT rclavicle
				{
					OFFSET 0.0883157 12.5016 0.82912
					CHANNELS 6 Xposition Yposition Zposition Zrotation Xrotation Yrotation
					JOINT rhumerus
					{
						OFFSET -20.61 4.45 1.44
						CHANNELS 6 Xposition Yposition Zposition Zrotation Xrotation Yrotation
						JOINT rradius
						{
							OFFSET 0 -29.5102 0
							CHANNELS 6 Xposition Yposition Zposition Zrotation Xrotation Yrotation
							JOINT rwrist
							{
								OFFSET 0 -19.2342 0
								CHANNELS 6 Xposition Yposition Zposition Zrotation Xrotation Yrotation
								JOINT rhand
								{
									OFFSET 0 -9.61712 0
									CHANNELS 6 Xposition Yposition Zposition Zrotation Xrotation Yrotation
									JOINT rfingers
									{
										OFFSET 0 -3.29215 0
										CHANNELS 6 Xposition Yposition Zposition Zrotation Xrotation Yrotation
										End Site
										{
											OFFSET 0 -2.557 0
										}
									}
								}
								JOINT rthumb
								{
									OFFSET 0 -9.61712 0
									CHANNELS 6 Xposition Yposition Zposition Zrotation Xrotation Yrotation
									End Site
									{
										OFFSET 0 -3.671 0
									}
								}
							}
						}
					}
				}
			}
		}
	}
	JOINT rfemur
	{
		OFFSET -8.46272 -9.62775 4.76248
		CHANNELS 6 Xposition Yposition Zposition Zrotation Xrotation Yrotation
		JOINT rtibia
		{
			OFFSET 1.00552e-005 -38.0331 0
			CHANNELS 6 Xposition Yposition Zposition Zrotation Xrotation Yrotation
			JOINT rfoot
			{
				OFFSET 1.14428e-005 -43.2815 0
				CHANNELS 6 Xposition Yposition Zposition Zrotation Xrotation Yrotation
				JOINT rtoes
				{
					OFFSET 0 -14.1868 -3.08763
					CHANNELS 6 Xposition Yposition Zposition Zrotation Xrotation Yrotation
					End Site
					{
						OFFSET 0 -7.27332 0
					}
				}
			}
		}
	}
	JOINT lfemur
	{
		OFFSET 9.10607 -9.62778 4.76249
		CHANNELS 6 Xposition Yposition Zposition Zrotation Xrotation Yrotation
		JOINT ltibia
		{
			OFFSET -1.01399e-005 -38.3535 0
			CHANNELS 6 Xposition Yposition Zposition Zrotation Xrotation Yrotation
			JOINT lfoot
			{
				OFFSET -1.12937e-005 -42.7176 0
				CHANNELS 6 Xposition Yposition Zposition Zrotation Xrotation Yrotation
				JOINT ltoes
				{
					OFFSET 0 -13.9965 -2.83857
					CHANNELS 6 Xposition Yposition Zposition Zrotation Xrotation Yrotation
					End Site
					{
						OFFSET 0 -7.16348 0
					}
				}
			}
		}
	}
}
MOTION
Frames: 8
Frame Time: 0.00833333
1.32467	98.3149	30.0031	1.11869	2.8367	4.01845	0 0 0 -3.61353	-1.65364	-1.34283	-0.214371 12.3768 -1.12219 0.539987	-1.567	-1.76419	-0.00137213 12.3873 0.296195 2.57671	-0.556275	-0.854164	0.0883157 12.5016 0.82912 -8.65837	0.922353	-9.09761	-1 10.1794 0.943522 11.4427	-2.03913	-12.2505	0.667525 10.2797 -1.57149 4.86369	0.524527	-6.18314	0.0883157 12.5016 0.82912 -15	0	-0	20.61 4.45006 1.43784 17.8684	0.405278	-178.452	0 -30.3438 0 -0	36.8838	-0	0 -18.964 0 1.36537e-014	-2.277e-015	-108.936	0 -9.48199 0 1.22245	4.37968	-2.58917e-014	0 -3.17138 0 -0	7.12502	-0	0 -9.48199 0 25	15	-1.36605e-015	0.0883157 12.5016 0.82912 15	0	-0	-20.61 4.45 1.44 -19.0355	4.24159	172.567	0 -29.5102 0 -0	39.8506	-0	0 -19.2342 0 9.26817e-016	-3.48532e-015	119.783	0 -9.61712 0 1.22	4.38	-0	0 -3.29215 0 -0	7.12502	-0	0 -9.61712 0 25	15	-7.97034e-015	-8.46272 -9.62775 4.76248 -1.68361	-16.55	1.02949	1.00552e-005 -38.0331 0 -0	31.79	-0	1.14428e-005 -43.2815 0 -36.7884	-74.4419	-37.8192	0 -14.1868 -3.08763 -0	-28.3773	-0	9.10607 -9.62778 4.76249 2.93611	8.73478	7.65287	-1.01399e-005 -38.3535 0 -0	18.7837	-0	-1.12937e-005 -42.7176 0 -7.54781	-63.0081	-8.45799	0 -13.9965 -2.83857 -0	-30.3247	-0
1.12445	98.3493	30.3792	1.20201	2.86794	4.13777	0 0 0 -3.51191	-1.6815	-1.35063	-0.214371 12.3768 -1.12219 0.558661	-1.58799	-1.7752	-0.00137213 12.3873 0.296195 2.53867	-0.5637	-0.860183	0.0883157 12.5016 0.82912 -8.64568	0.992019	-9.17996	-1 10.1794 0.943522 11.4071	-2.0769	-12.3625	0.667525 10.2797 -1.57149 4.85597	0.511183	-6.24071	0.0883157 12.5016 0.82912 -15	0	-0	20.61 4.45006 1.43784 17.9372	0.593843	-178.414	0 -30.3438 0 -0	36.9915	-0	0 -18.964 0 1.36516e-014	-2.28303e-015	-108.988	0 -9.48199 0 1.22245	4.37968	-2.58917e-014	0 -3.17138 0 -0	7.12502	-0	0 -9.48199 0 25	15	-1.36605e-015	0.0883157 12.5016 0.82912 15	0	-0	-20.61 4.45 1.44 -19.0254	4.34364	172.591	0 -29.5102 0 -0	40.04	-0	0 -19.2342 0 9.27121e-016	-3.48585e-015	119.788	0 -9.61712 0 1.22	4.38	-0	0 -3.29215 0 -0	7.12502	-0	0 -9.61712 0 25	15	-7.97034e-015	-8.46272 -9.62775 4.76248 -1.64732	-16.1949	0.960602	1.00552e-005 -38.0331 0 -0	31.5863	-0	1.14428e-005 -43.2815 0 -37.2309	-74.5769	-38.2478	0 -14.1868 -3.08763 -0	-28.3207	-0	9.10607 -9.62778 4.76249 3.25036	8.0264	7.90239	-1.01399e-005 -38.3535 0 -0	20.2359	-0	-1.12937e-005 -42.7176 0 -8.2962	-62.4228	-9.34198	0 -13.9965 -2.83857 -0	-30.074	-0
0.928277	98.381	30.7474	1.27764	2.8895	4.25769	0 0 0 -3.40367	-1.69471	-1.35845	-0.214371 12.3768 -1.12219 0.57739	-1.60446	-1.7867	-0.00137213 12.3873 0.296195 2.4973	-0.574862	-0.86648	0.0883157 12.5016 0.82912 -8.63149	1.07055	-9.2623	-1 10.1794 0.943522 11.3647	-2.14091	-12.4733	0.667525 10.2797 -1.57149 4.84848	0.488401	-6.29807	0.0883157 12.5016 0.82912 -15	0	-0	20.61 4.45006 1.43784 18.0043	0.766394	-178.358	0 -30.3438 0 -0	37.0952	-0	0 -18.964 0 1.36491e-014	-2.29021e-015	-109.05	0 -9.48199 0 1.22245	4.37968	-2.58917e-014	0 -3.17138 0 -0	7.12502	-0	0 -9.48199 0 25	15	-1.36605e-015	0.0883157 12.5016 0.82912 15	0	-0	-20.61 4.45 1.44 -19.017	4.44333	172.627	0 -29.5102 0 -0	40.2326	-0	0 -19.2342 0 9.28643e-016	-3.4885e-015	119.813	0 -9.61712 0 1.22	4.38	-0	0 -3.29215 0 -0	7.12502	-0	0 -9.61712 0 25	15	-7.97034e-015	-8.46272 -9.62775 4.76248 -1.60683	-15.8315	0.879963	1.00552e-005 -38.0331 0 -0	31.3782	-0	1.14428e-005 -43.2815 0 -37.6408	-74.7096	-38.6436	0 -14.1868 -3.08763 -0	-28.2876	-0	9.10607 -9.62778 4.76249 3.5806	7.3034	8.16493	-1.01399e-005 -38.3535 0 -0	21.7201	-0	-1.12937e-005 -42.7176 0 -8.96107	-61.802	-10.1443	0 -13.9965 -2.83857 -0	-29.7815	-0
0.734975	98.4109	31.1067	1.34639	2.90017	4.37583	0 0 0 -3.28961	-1.69153	-1.36566	-0.214371 12.3768 -1.12219 0.596127	-1.61521	-1.79779	-0.00137213 12.3873 0.296195 2.45299	-0.589538	-0.872614	0.0883157 12.5016 0.82912 -8.61595	1.15683	-9.34416	-1 10.1794 0.943522 11.3156	-2.23166	-12.5821	0.667525 10.2797 -1.57149 4.84126	0.456148	-6.35484	0.0883157 12.5016 0.82912 -15	0	-0	20.61 4.45006 1.43784 18.0678	0.922605	-178.282	0 -30.3438 0 -0	37.1957	-0	0 -18.964 0 1.36464e-014	-2.29808e-015	-109.118	0 -9.48199 0 1.22245	4.37968	-2.58917e-014	0 -3.17138 0 -0	7.12502	-0	0 -9.48199 0 25	15	-1.36605e-015	0.0883157 12.5016 0.82912 15	0	-0	-20.61 4.45 1.44 -19.013	4.53793	172.674	0 -29.5102 0 -0	40.4247	-0	0 -19.2342 0 9.31323e-016	-3.49318e-015	119.857	0 -9.61712 0 1.22	4.38	-0	0 -3.29215 0 -0	7.12502	-0	0 -9.61712 0 25	15	-7.97034e-015	-8.46272 -9.62775 4.76248 -1.56251	-15.4593	0.78954	1.00552e-005 -38.0331 0 -0	31.1649	-0	1.14428e-005 -43.2815 0 -38.0069	-74.8365	-38.9959	0 -14.1868 -3.08763 -0	-28.2769	-0	9.10607 -9.62778 4.76249 3.92539	6.55854	8.44039	-1.01399e-005 -38.3535 0 -0	23.2503	-0	-1.12937e-005 -42.7176 0 -9.52576	-61.1511	-10.8455	0 -13.9965 -2.83857 -0	-29.4442	-0
0.544675	98.4385	31.4561	1.40917	2.89916	4.49012	0 0 0 -3.17076	-1.67094	-1.37183	-0.214371 12.3768 -1.12219 0.614739	-1.61946	-1.80786	-0.00137213 12.3873 0.296195 2.40621	-0.607526	-0.87827	0.0883157 12.5016 0.82912 -8.59934	1.24919	-9.42495	-1 10.1794 0.943522 11.2605	-2.34762	-12.6882	0.667525 10.2797 -1.57149 4.8372	0.415113	-6.41056	0.0883157 12.5016 0.82912 -15	0	-0	20.61 4.45006 1.43784 18.1269	1.06354	-178.182	0 -30.3438 0 -0	37.2951	-0	0 -18.964 0 1.36436e-014	-2.30617e-015	-109.188	0 -9.48199 0 1.22245	4.37968	-2.58917e-014	0 -3.17138 0 -0	7.12502	-0	0 -9.48199 0 25	15	-1.36605e-015	0.0883157 12.5016 0.82912 15	0	-0	-20.61 4.45 1.44 -19.0128	4.62491	172.733	0 -29.5102 0 -0	40.6128	-0	0 -19.2342 0 9.35046e-016	-3.49965e-015	119.918	0 -9.61712 0 1.22	4.38	-0	0 -3.29215 0 -0	7.12502	-0	0 -9.61712 0 25	15	-7.97034e-015	-8.46272 -9.62775 4.76248 -1.51461	-15.0772	0.691586	1.00552e-005 -38.0331 0 -0	30.9451	-0	1.14428e-005 -43.2815 0 -38.322	-74.955	-39.2977	0 -14.1868 -3.08763 -0	-28.2859	-0	9.10607 -9.62778 4.76249 4.28324	5.78589	8.72814	-1.01399e-005 -38.3535 0 -0	24.8371	-0	-1.12937e-005 -42.7176 0 -9.97322	-60.4728	-11.4253	0 -13.9965 -2.83857 -0	-29.0574	-0
0.357449	98.4645	31.7965	1.46671	2.88617	4.59896	0 0 0 -3.04816	-1.63266	-1.37674	-0.214371 12.3768 -1.12219 0.633076	-1.6169	-1.81657	-0.00137213 12.3873 0.296195 2.35737	-0.628668	-0.883272	0.0883157 12.5016 0.82912 -8.58198	1.34563	-9.50401	-1 10.1794 0.943522 11.2006	-2.48558	-12.7908	0.667525 10.2797 -1.57149 4.83244	0.366535	-6.46477	0.0883157 12.5016 0.82912 -15	0	-0	20.61 4.45006 1.43784 18.1814	1.19143	-178.06	0 -30.3438 0 -0	37.3965	-0	0 -18.964 0 1.3641e-014	-2.31369e-015	-109.253	0 -9.48199 0 1.22245	4.37968	-2.58917e-014	0 -3.17138 0 -0	7.12502	-0	0 -9.48199 0 25	15	-1.36605e-015	0.0883157 12.5016 0.82912 15	0	-0	-20.61 4.45 1.44 -19.0166	4.70224	172.805	0 -29.5102 0 -0	40.7935	-0	0 -19.2342 0 9.39754e-016	-3.50782e-015	119.995	0 -9.61712 0 1.22	4.38	-0	0 -3.29215 0 -0	7.12502	-0	0 -9.61712 0 25	15	-7.97034e-015	-8.46272 -9.62775 4.76248 -1.46323	-14.6844	0.588355	1.00552e-005 -38.0331 0 -0	30.7169	-0	1.14428e-005 -43.2815 0 -38.5818	-75.0632	-39.5452	0 -14.1868 -3.08763 -0	-28.3111	-0	9.10607 -9.62778 4.76249 4.65278	4.98121	9.02708	-1.01399e-005 -38.3535 0 -0	26.4868	-0	-1.12937e-005 -42.7176 0 -10.287	-59.7676	-11.8636	0 -13.9965 -2.83857 -0	-28.6151	-0
0.17363	98.4888	32.1301	1.51949	2.8614	4.70129	0 0 0 -2.92273	-1.57707	-1.38014	-0.214371 12.3768 -1.12219 0.651037	-1.60765	-1.82386	-0.00137213 12.3873 0.296195 2.3069	-0.652847	-0.88758	0.0883157 12.5016 0.82912 -8.56423	1.44415	-9.58072	-1 10.1794 0.943522 11.137	-2.64128	-12.8895	0.667525 10.2797 -1.57149 4.82712	0.311993	-6.51708	0.0883157 12.5016 0.82912 -15	0	-0	20.61 4.45006 1.43784 18.2315	1.30931	-177.916	0 -30.3438 0 -0	37.5033	-0	0 -18.964 0 1.36387e-014	-2.32016e-015	-109.309	0 -9.48199 0 1.22245	4.37968	-2.58917e-014	0 -3.17138 0 -0	7.12502	-0	0 -9.48199 0 25	15	-1.36605e-015	0.0883157 12.5016 0.82912 15	0	-0	-20.61 4.45 1.44 -19.0245	4.76834	172.889	0 -29.5102 0 -0	40.964	-0	0 -19.2342 0 9.45088e-016	-3.51705e-015	120.082	0 -9.61712 0 1.22	4.38	-0	0 -3.29215 0 -0	7.12502	-0	0 -9.61712 0 25	15	-7.97034e-015	-8.46272 -9.62775 4.76248 -1.40822	-14.2798	0.481813	1.00552e-005 -38.0331 0 -0	30.4776	-0	1.14428e-005 -43.2815 0 -38.7855	-75.1601	-39.7377	0 -14.1868 -3.08763 -0	-28.3486	-0	9.10607 -9.62778 4.76249 5.03285	4.14202	9.33579	-1.01399e-005 -38.3535 0 -0	28.2016	-0	-1.12937e-005 -42.7176 0 -10.452	-59.0339	-12.1414	0 -13.9965 -2.83857 -0	-28.1102	-0
-0.00640366	98.5119	32.4578	1.56754	2.82547	4.79665	0 0 0 -2.79513	-1.50519	-1.38303	-0.214371 12.3768 -1.12219 0.668631	-1.59219	-1.8299	-0.00137213 12.3873 0.296195 2.25514	-0.679984	-0.891274	0.0883157 12.5016 0.82912 -8.54644	1.5429	-9.65458	-1 10.1794 0.943522 11.0714	-2.80993	-12.9838	0.667525 10.2797 -1.57149 4.82141	0.253205	-6.56718	0.0883157 12.5016 0.82912 -15	0	-0	20.61 4.45006 1.43784 18.2781	1.42064	-177.753	0 -30.3438 0 -0	37.6193	-0	0 -18.964 0 1.36369e-014	-2.32525e-015	-109.353	0 -9.48199 0 1.22245	4.37968	-2.58917e-014	0 -3.17138 0 -0	7.12502	-0	0 -9.48199 0 25	15	-1.36605e-015	0.0883157 12.5016 0.82912 15	0	-0	-20.61 4.45 1.44 -19.0362	4.82221	172.986	0 -29.5102 0 -0	41.1221	-0	0 -19.2342 0 9.50805e-016	-3.5269e-015	120.175	0 -9.61712 0 1.22	4.38	-0	0 -3.29215 0 -0	7.12502	-0	0 -9.61712 0 25	15	-7.97034e-015	-8.46272 -9.62775 4.76248 -1.34917	-13.8623	0.373402	1.00552e-005 -38.0331 0 -0	30.2247	-0	1.14428e-005 -43.2815 0 -38.9343	-75.2451	-39.8764	0 -14.1868 -3.08763 -0	-28.3941	-0	9.10607 -9.62778 4.76249 5.42264	3.26748	9.65272	-1.01399e-005 -38.3535 0 -0	29.9793	-0	-1.12937e-005 -42.7176 0 -10.4565	-58.2687	-12.2429	0 -13.9965 -2.83857 -0	-27.5357	-0
